<svg width="382" height="382" viewBox="0 0 382 382" fill="none" xmlns="http://www.w3.org/2000/svg">
    <path d="M159.418 29.3359L159.213 30.4932H154.474L154.679 29.3359H159.418ZM160.597 29.3359L158.751 40H157.367L159.22 29.3359H160.597ZM154.218 29.3359H155.587L154.452 34.5581C154.354 35.0171 154.25 35.5005 154.137 36.0083C154.025 36.5161 153.881 37.0093 153.705 37.4878C153.534 37.9614 153.31 38.3911 153.031 38.7769C152.758 39.1577 152.414 39.4604 151.999 39.6851C151.588 39.9048 151.088 40.0098 150.497 40H150.087L150.219 38.8501L150.482 38.8354C150.912 38.8062 151.269 38.6865 151.552 38.4766C151.84 38.2617 152.074 37.9883 152.255 37.6562C152.436 37.3242 152.58 36.9629 152.687 36.5723C152.794 36.1816 152.882 35.791 152.951 35.4004C153.019 35.0098 153.085 34.6509 153.148 34.3237L154.218 29.3359ZM163.336 39.0991L166.676 32.0752H168.141L163.49 41.2305C163.368 41.4893 163.224 41.7383 163.058 41.9775C162.897 42.2168 162.711 42.4316 162.501 42.6221C162.296 42.8125 162.064 42.9614 161.806 43.0688C161.547 43.1763 161.261 43.23 160.949 43.23C160.817 43.2251 160.685 43.2104 160.553 43.186C160.417 43.1616 160.285 43.1348 160.158 43.1055L160.238 41.9922C160.297 42.002 160.355 42.0093 160.414 42.0142C160.473 42.0239 160.529 42.0312 160.583 42.0361C160.91 42.0459 161.19 41.9995 161.425 41.897C161.664 41.7944 161.869 41.6431 162.04 41.4429C162.216 41.2427 162.372 41.0034 162.509 40.7251L163.336 39.0991ZM162.97 32.0752L163.915 38.3008L164.003 39.6997L163.014 40.1831L161.579 32.0752H162.97ZM175.092 32.0752L173.715 40H172.389L173.766 32.0752H175.092ZM173.971 35.7153L173.876 36.8359C173.588 36.9482 173.295 37.0435 172.997 37.1216C172.699 37.1997 172.399 37.2583 172.096 37.2974C171.793 37.3364 171.486 37.3535 171.173 37.3486C170.578 37.3389 170.08 37.2095 169.679 36.9604C169.284 36.7065 168.998 36.3599 168.822 35.9204C168.646 35.4761 168.59 34.9609 168.654 34.375L169.02 32.0605H170.346L169.972 34.3823C169.933 34.7192 169.943 35.0244 170.001 35.2979C170.065 35.5713 170.194 35.791 170.39 35.957C170.585 36.123 170.871 36.2109 171.247 36.2207C171.559 36.2305 171.867 36.2134 172.169 36.1694C172.477 36.1255 172.78 36.0645 173.078 35.9863C173.375 35.9033 173.673 35.813 173.971 35.7153ZM177.326 32.0752H178.644L177.465 38.8867H180.27L181.449 32.0752H182.782L181.596 38.8867H184.394L185.58 32.0752H186.906L185.529 40H175.949L177.326 32.0752ZM189.425 37.7661L193.908 32.0752H195.285L193.908 40H192.575L193.571 34.3091L189.088 40H187.726L189.103 32.0752H190.414L189.425 37.7661ZM197.833 37.7661L202.316 32.0752H203.693L202.316 40H200.983L201.979 34.3091L197.497 40H196.134L197.511 32.0752H198.822L197.833 37.7661ZM202.096 29.2114L203.158 29.2041C203.119 29.6143 202.997 29.9683 202.792 30.2661C202.592 30.5591 202.326 30.7837 201.994 30.9399C201.667 31.0962 201.298 31.1694 200.888 31.1597C200.297 31.1499 199.818 30.9692 199.452 30.6177C199.091 30.2661 198.915 29.7925 198.925 29.1968L199.994 29.2041C199.979 29.5166 200.041 29.7778 200.177 29.9878C200.314 30.1929 200.553 30.2979 200.895 30.3027C201.242 30.3076 201.513 30.2075 201.708 30.0024C201.908 29.7925 202.038 29.5288 202.096 29.2114ZM210.292 32.0752L211.515 34.9536L213.668 32.0752H215.302L212.123 36.0522L214.057 40H212.614L211.303 37.0337L209.069 40H207.45L210.717 35.9204L208.849 32.0752H210.292ZM215.536 36.1694L215.558 36.001C215.617 35.4688 215.749 34.9561 215.954 34.4629C216.164 33.9697 216.439 33.5303 216.781 33.1445C217.123 32.7588 217.528 32.4561 217.997 32.2363C218.466 32.0166 218.988 31.9141 219.564 31.9287C220.121 31.9385 220.597 32.0581 220.993 32.2876C221.393 32.5171 221.715 32.8223 221.959 33.2031C222.208 33.5791 222.382 34.0039 222.479 34.4775C222.577 34.9512 222.602 35.4395 222.553 35.9424L222.538 36.1108C222.475 36.6431 222.338 37.1533 222.128 37.6416C221.918 38.1299 221.64 38.5645 221.293 38.9453C220.951 39.3262 220.546 39.6265 220.077 39.8462C219.608 40.061 219.088 40.1611 218.517 40.1465C217.965 40.1367 217.489 40.0195 217.089 39.7949C216.693 39.5654 216.374 39.2627 216.129 38.8867C215.885 38.5107 215.714 38.0884 215.617 37.6196C215.519 37.1509 215.492 36.6675 215.536 36.1694ZM216.876 36.001L216.862 36.1768C216.828 36.4844 216.825 36.8042 216.854 37.1362C216.889 37.4683 216.967 37.7759 217.089 38.0591C217.216 38.3423 217.399 38.5742 217.638 38.7549C217.877 38.9355 218.188 39.0308 218.568 39.0405C218.974 39.0503 219.33 38.9722 219.638 38.8062C219.945 38.6353 220.207 38.4058 220.421 38.1177C220.641 37.8296 220.814 37.5098 220.941 37.1582C221.073 36.8066 221.161 36.4575 221.205 36.1108L221.22 35.9424C221.254 35.6348 221.254 35.3149 221.22 34.9829C221.19 34.646 221.112 34.3335 220.985 34.0454C220.863 33.7524 220.683 33.5156 220.443 33.335C220.204 33.1494 219.894 33.0518 219.513 33.042C219.108 33.0273 218.749 33.1079 218.437 33.2837C218.129 33.4546 217.868 33.6865 217.653 33.9795C217.438 34.2725 217.265 34.5972 217.133 34.9536C217.006 35.3052 216.92 35.6543 216.876 36.001ZM225.731 32.0752H227.064L226.435 35.0342C226.337 35.542 226.21 36.04 226.054 36.5283C225.897 37.0117 225.7 37.4707 225.46 37.9053C225.221 38.3398 224.928 38.7354 224.582 39.0918C224.24 39.4482 223.827 39.751 223.344 40H222.597L222.802 38.9014H223.065C223.354 38.623 223.607 38.3398 223.827 38.0518C224.052 37.7637 224.245 37.4658 224.406 37.1582C224.572 36.8457 224.711 36.5161 224.823 36.1694C224.94 35.8179 225.036 35.4419 225.109 35.0415L225.731 32.0752ZM226.061 32.0752H230.697L229.32 40H227.995L229.152 33.3276H225.841L226.061 32.0752ZM222.501 38.8867H230.5L229.899 42.3364H228.573L228.983 40H223.629L223.219 42.3364H221.894L222.501 38.8867Z" fill="#8A5D31"/>
    <line y1="254" x2="382" y2="254" stroke="#D9D7DE" stroke-dasharray="2 2"/>
    <line x1="128" y1="2.18557e-08" x2="128" y2="382" stroke="#D9D7DE" stroke-dasharray="2 2"/>
    <line y1="127" x2="382" y2="127" stroke="#D9D7DE" stroke-dasharray="2 2"/>
    <line x1="255" y1="2.18557e-08" x2="255" y2="382" stroke="#D9D7DE" stroke-dasharray="2 2"/>
    <path d="M341.14 42.6289C339.063 40.5639 336.975 38.5112 334.95 36.3969C333.481 34.8592 332.155 33.186 330.672 31.6607C329.938 30.9091 329.317 30.1575 328.974 29.1496C328.459 27.6391 327.488 26.476 326.079 25.6899C325.579 25.4114 325.103 25.0861 324.741 24.8545C324.159 23.169 325.537 21.0596 323.203 20C322.7 20.2489 322.124 20.4362 321.673 20.7787C320.8 21.444 319.953 22.1537 319.172 22.9201C318.314 23.7604 317.427 24.236 316.175 24.4923C313.169 25.0985 310.118 25.7712 307.306 26.9442C301.057 29.5611 296.92 34.492 293.973 40.4209C291.356 45.6919 290.831 51.4434 291.526 57.148C292.085 61.6945 293.209 66.2114 295.005 70.4967C297.208 75.738 300.121 80.5457 303.686 84.969C303.957 85.3017 304.201 85.6614 304.445 86.0237C303.053 86.1912 301.969 87.3765 301.969 88.8205V91.6371C301.969 91.7677 301.981 91.8934 301.998 92.0166H301.363C299.8 92.0166 298.534 93.2832 298.534 94.8456V106.171C298.534 107.736 299.8 109 301.363 109H333.585C335.147 109 336.416 107.733 336.416 106.171V94.8456C336.416 93.2857 335.147 92.0166 333.585 92.0166H332.947C332.964 91.891 332.976 91.7653 332.976 91.6371V88.8205C332.976 87.2656 331.714 86.004 330.159 86.004H329.913C330.872 85.1193 331.791 84.2765 332.646 83.3722C336.522 79.2914 337.215 73.5005 334.494 68.5425C333.163 66.1202 331.293 64.1562 329.134 62.4756C326.705 60.5856 324.191 58.8015 321.739 56.9386C321.039 56.4063 320.421 55.7705 319.487 54.9352C321.798 55.4206 323.639 56.049 325.5 56.1426C328.711 56.3003 331.48 57.3599 334.05 59.2204C335.044 59.94 336.197 60.5141 337.36 60.9133C338.87 61.4308 339.625 61.0612 340.526 59.7009C340.763 59.3436 340.906 58.9296 341.133 58.459C342.922 58.4836 343.902 57.456 344.395 55.8099C344.563 55.2481 344.849 54.7257 345.056 54.1786C346.445 50.5119 345.728 47.2641 343.065 44.4351C342.468 43.7871 341.763 43.2499 341.14 42.6289Z" fill="#8A5D31"/>
    <path d="M282 65C282.828 65 283.5 64.3284 283.5 63.5C283.5 62.6716 282.828 62 282 62V65ZM191 63.5V62C190.172 62 189.5 62.6716 189.5 63.5H191ZM189.939 268.561C190.525 269.146 191.475 269.146 192.061 268.561L201.607 259.015C202.192 258.429 202.192 257.479 201.607 256.893C201.021 256.308 200.071 256.308 199.485 256.893L191 265.379L182.515 256.893C181.929 256.308 180.979 256.308 180.393 256.893C179.808 257.479 179.808 258.429 180.393 259.015L189.939 268.561ZM192.5 267.5V264.5H189.5V267.5H192.5ZM192.5 258.5V252.5H189.5V258.5H192.5ZM192.5 246.5V240.5H189.5V246.5H192.5ZM192.5 234.5V228.5H189.5V234.5H192.5ZM192.5 222.5V216.5H189.5V222.5H192.5ZM192.5 210.5V204.5H189.5V210.5H192.5ZM192.5 198.5V192.5H189.5V198.5H192.5ZM192.5 186.5V180.5H189.5V186.5H192.5ZM192.5 174.5V168.5H189.5V174.5H192.5ZM192.5 162.5V156.5H189.5V162.5H192.5ZM192.5 150.5V144.5H189.5V150.5H192.5ZM192.5 138.5V132.5H189.5V138.5H192.5ZM192.5 126.5V120.5H189.5V126.5H192.5ZM192.5 114.5V108.5H189.5V114.5H192.5ZM192.5 102.5V96.5H189.5V102.5H192.5ZM192.5 90.5V84.5H189.5V90.5H192.5ZM192.5 78.5V72.5H189.5V78.5H192.5ZM192.5 66.5V63.5H189.5V66.5H192.5ZM191 65H193.844V62H191V65ZM199.531 65H205.219V62H199.531V65ZM210.906 65H216.594V62H210.906V65ZM222.281 65H227.969V62H222.281V65ZM233.656 65H239.344V62H233.656V65ZM245.031 65H250.719V62H245.031V65ZM256.406 65H262.094V62H256.406V65ZM267.781 65H273.469V62H267.781V65ZM279.156 65H282V62H279.156V65Z" fill="#8A5D31"/>
    <path d="M207.96 344.023C209.067 342.912 210 341.344 210 339.191C210 333.855 203.704 327.748 201.364 322.583C199.061 317.5 197.729 312.628 201.22 311.251L201.514 311.127C202.512 310.758 203.091 310.331 203.091 309.875C203.091 309.096 201.415 308.397 198.783 307.931C200.133 306.82 201.219 305.432 201.963 303.865C202.707 302.298 203.092 300.59 203.091 298.861C203.091 297.303 202.778 295.761 202.171 294.322C201.563 292.883 200.672 291.575 199.55 290.474C198.427 289.373 197.094 288.499 195.627 287.903C194.16 287.307 192.588 287 191 287C189.412 287 187.84 287.307 186.373 287.903C184.906 288.499 183.573 289.373 182.45 290.474C181.328 291.575 180.437 292.883 179.829 294.322C179.222 295.761 178.909 297.303 178.909 298.861C178.908 300.59 179.293 302.298 180.037 303.865C180.781 305.432 181.867 306.82 183.217 307.931C180.585 308.397 178.909 309.096 178.909 309.875C178.909 310.331 179.488 310.758 180.488 311.127C180.585 311.168 180.671 311.209 180.78 311.251C184.271 312.628 182.939 317.5 180.636 322.583C178.296 327.748 172 333.855 172 339.191C172 341.344 172.933 342.912 174.04 344.023C172.746 344.709 172 345.484 172 346.306C172 346.9 172.402 347.47 173.104 348H208.895C209.598 347.47 210 346.9 210 346.306C210 345.484 209.254 344.709 207.96 344.023Z" fill="#D9D7DE"/>
    <rect x="207.276" y="63.5776" width="23.6157" height="23.6157" transform="rotate(135 207.276 63.5776)" fill="#8A5D31" stroke="#232326" stroke-width="3"/>
</svg>
