<svg width="378" height="383" viewBox="0 0 378 383" fill="none" xmlns="http://www.w3.org/2000/svg">
<path d="M333.032 346.336L334.878 350.416L337.998 346.336H339.69L335.537 351.683L338.02 357H336.482L334.585 352.84L331.384 357H329.678L333.926 351.551L331.509 346.336H333.032ZM339.543 353.169L339.565 353.001C339.624 352.469 339.756 351.956 339.961 351.463C340.171 350.97 340.447 350.53 340.789 350.145C341.13 349.759 341.536 349.456 342.004 349.236C342.473 349.017 342.996 348.914 343.572 348.929C344.128 348.938 344.604 349.058 345 349.288C345.4 349.517 345.723 349.822 345.967 350.203C346.216 350.579 346.389 351.004 346.487 351.478C346.584 351.951 346.609 352.439 346.56 352.942L346.545 353.111C346.482 353.643 346.345 354.153 346.135 354.642C345.925 355.13 345.647 355.564 345.3 355.945C344.958 356.326 344.553 356.626 344.084 356.846C343.616 357.061 343.096 357.161 342.524 357.146C341.973 357.137 341.497 357.02 341.096 356.795C340.701 356.565 340.381 356.263 340.137 355.887C339.893 355.511 339.722 355.088 339.624 354.62C339.526 354.151 339.5 353.667 339.543 353.169ZM340.884 353.001L340.869 353.177C340.835 353.484 340.833 353.804 340.862 354.136C340.896 354.468 340.974 354.776 341.096 355.059C341.223 355.342 341.406 355.574 341.646 355.755C341.885 355.936 342.195 356.031 342.576 356.041C342.981 356.05 343.337 355.972 343.645 355.806C343.953 355.635 344.214 355.406 344.429 355.118C344.648 354.83 344.822 354.51 344.949 354.158C345.081 353.807 345.168 353.458 345.212 353.111L345.227 352.942C345.261 352.635 345.261 352.315 345.227 351.983C345.198 351.646 345.12 351.333 344.993 351.045C344.871 350.752 344.69 350.516 344.451 350.335C344.211 350.149 343.901 350.052 343.521 350.042C343.115 350.027 342.756 350.108 342.444 350.284C342.136 350.455 341.875 350.687 341.66 350.979C341.445 351.272 341.272 351.597 341.14 351.954C341.013 352.305 340.928 352.654 340.884 353.001ZM349.739 349.075H351.072L350.442 352.034C350.344 352.542 350.217 353.04 350.061 353.528C349.905 354.012 349.707 354.471 349.468 354.905C349.229 355.34 348.936 355.735 348.589 356.092C348.247 356.448 347.834 356.751 347.351 357H346.604L346.809 355.901H347.073C347.361 355.623 347.615 355.34 347.834 355.052C348.059 354.764 348.252 354.466 348.413 354.158C348.579 353.846 348.718 353.516 348.831 353.169C348.948 352.818 349.043 352.442 349.116 352.042L349.739 349.075ZM350.068 349.075H354.705L353.328 357H352.002L353.159 350.328H349.849L350.068 349.075ZM346.509 355.887H354.507L353.906 359.336H352.581L352.991 357H347.637L347.227 359.336H345.901L346.509 355.887ZM357.751 351.8L359.971 351.807C360.469 351.822 360.913 351.929 361.304 352.129C361.699 352.325 362.004 352.605 362.219 352.972C362.434 353.338 362.522 353.785 362.483 354.312C362.454 354.747 362.346 355.132 362.161 355.469C361.98 355.806 361.741 356.089 361.443 356.319C361.145 356.548 360.808 356.722 360.432 356.839C360.056 356.951 359.663 357.005 359.253 357H355.891L357.268 349.075H358.586L357.407 355.887L359.282 355.894C359.6 355.889 359.89 355.828 360.154 355.711C360.422 355.594 360.645 355.423 360.82 355.198C361.001 354.969 361.113 354.69 361.157 354.363C361.191 354.08 361.165 353.833 361.077 353.624C360.994 353.414 360.854 353.248 360.659 353.125C360.469 353.003 360.234 352.935 359.956 352.92L357.554 352.913L357.751 351.8ZM366.152 349.075L364.775 357H363.45L364.827 349.075H366.152Z" fill="#232326"/>
<path d="M138.621 346.277V357H137.266V347.969L134.534 348.965V347.742L138.408 346.277H138.621Z" fill="#232326"/>
<path d="M222.155 355.887V357H215.175V356.026L218.668 352.137C219.098 351.658 219.43 351.253 219.665 350.921C219.904 350.584 220.07 350.284 220.163 350.02C220.26 349.751 220.309 349.478 220.309 349.2C220.309 348.848 220.236 348.531 220.089 348.248C219.948 347.959 219.738 347.73 219.459 347.559C219.181 347.388 218.844 347.303 218.449 347.303C217.975 347.303 217.58 347.396 217.262 347.581C216.95 347.762 216.715 348.016 216.559 348.343C216.403 348.67 216.325 349.046 216.325 349.471H214.97C214.97 348.87 215.102 348.321 215.365 347.823C215.629 347.325 216.02 346.929 216.537 346.636C217.055 346.338 217.692 346.189 218.449 346.189C219.123 346.189 219.699 346.309 220.177 346.548C220.656 346.783 221.022 347.115 221.276 347.544C221.535 347.969 221.664 348.467 221.664 349.039C221.664 349.351 221.61 349.668 221.503 349.991C221.4 350.308 221.256 350.625 221.071 350.943C220.89 351.26 220.678 351.573 220.434 351.88C220.194 352.188 219.938 352.491 219.665 352.789L216.808 355.887H222.155Z" fill="#232326"/>
<path d="M298.145 351.001H299.112C299.585 351.001 299.976 350.923 300.284 350.767C300.596 350.606 300.828 350.389 300.979 350.115C301.136 349.837 301.214 349.524 301.214 349.178C301.214 348.768 301.146 348.423 301.009 348.145C300.872 347.867 300.667 347.657 300.394 347.515C300.12 347.374 299.773 347.303 299.354 347.303C298.973 347.303 298.636 347.378 298.343 347.53C298.055 347.676 297.828 347.886 297.662 348.16C297.5 348.433 297.42 348.755 297.42 349.126H296.065C296.065 348.584 296.202 348.091 296.475 347.647C296.749 347.203 297.132 346.849 297.625 346.585C298.123 346.321 298.699 346.189 299.354 346.189C299.998 346.189 300.562 346.304 301.045 346.534C301.529 346.758 301.905 347.095 302.173 347.544C302.442 347.989 302.576 348.543 302.576 349.207C302.576 349.476 302.513 349.764 302.386 350.071C302.264 350.374 302.071 350.657 301.807 350.921C301.548 351.185 301.211 351.402 300.796 351.573C300.381 351.739 299.883 351.822 299.302 351.822H298.145V351.001ZM298.145 352.115V351.302H299.302C299.981 351.302 300.542 351.382 300.987 351.543C301.431 351.705 301.78 351.919 302.034 352.188C302.293 352.457 302.474 352.752 302.576 353.074C302.684 353.392 302.737 353.709 302.737 354.026C302.737 354.524 302.652 354.966 302.481 355.352C302.315 355.738 302.078 356.065 301.771 356.333C301.468 356.602 301.111 356.805 300.701 356.941C300.291 357.078 299.844 357.146 299.361 357.146C298.897 357.146 298.46 357.081 298.05 356.949C297.645 356.817 297.286 356.626 296.973 356.377C296.661 356.124 296.417 355.813 296.241 355.447C296.065 355.076 295.977 354.654 295.977 354.18H297.332C297.332 354.551 297.413 354.876 297.574 355.154C297.74 355.433 297.974 355.65 298.277 355.806C298.584 355.958 298.946 356.033 299.361 356.033C299.776 356.033 300.132 355.962 300.43 355.821C300.733 355.674 300.965 355.455 301.126 355.162C301.292 354.869 301.375 354.5 301.375 354.056C301.375 353.611 301.282 353.248 301.097 352.964C300.911 352.676 300.647 352.464 300.306 352.327C299.969 352.186 299.571 352.115 299.112 352.115H298.145Z" fill="#232326"/>
<path d="M53.8536 0.646447C53.6583 0.451184 53.3417 0.451184 53.1464 0.646447L49.9645 3.82843C49.7692 4.02369 49.7692 4.34027 49.9645 4.53553C50.1597 4.7308 50.4763 4.7308 50.6716 4.53553L53.5 1.70711L56.3284 4.53553C56.5237 4.7308 56.8403 4.7308 57.0355 4.53553C57.2308 4.34027 57.2308 4.02369 57.0355 3.82843L53.8536 0.646447ZM53 1L53 383L54 383L54 1L53 1Z" fill="#232326"/>
<path d="M377.354 332.354C377.549 332.158 377.549 331.842 377.354 331.646L374.172 328.464C373.976 328.269 373.66 328.269 373.464 328.464C373.269 328.66 373.269 328.976 373.464 329.172L376.293 332L373.464 334.828C373.269 335.024 373.269 335.34 373.464 335.536C373.66 335.731 373.976 335.731 374.172 335.536L377.354 332.354ZM0 332.5H377V331.5H0V332.5Z" fill="black"/>
<path d="M0 97H377" stroke="#232326"/>
<rect x="109" y="226" width="57" height="106" fill="#8A5D31"/>
<rect x="190" y="290" width="57" height="42" fill="#8A5D31"/>
<rect x="271" y="180" width="57" height="152" fill="#8A5D31"/>
<rect x="109" y="97" width="57" height="129" fill="#232326"/>
<rect x="190" y="97" width="57" height="193" fill="#232326"/>
<rect x="271" y="97" width="57" height="83" fill="#232326"/>
<rect x="109" y="217" width="57" height="9" fill="#DEDAD7"/>
<rect x="190" y="281" width="57" height="9" fill="#DEDAD7"/>
<rect x="271" y="171" width="57" height="9" fill="#DEDAD7"/>
<rect x="152.155" y="221.578" width="20.6157" height="20.6157" transform="rotate(135 152.155 221.578)" fill="#DEDAD7"/>
<rect x="233.155" y="285.578" width="20.6157" height="20.6157" transform="rotate(135 233.155 285.578)" fill="#DEDAD7"/>
<rect x="314.155" y="175.578" width="20.6157" height="20.6157" transform="rotate(135 314.155 175.578)" fill="#DEDAD7"/>
</svg>
