<svg width="399" height="419" viewBox="0 0 399 419" fill="none" xmlns="http://www.w3.org/2000/svg">
<g clip-path="url(#clip0_110_5)">
<path d="M6.88782 104.332C5.95591 104.834 5.82938 105.139 6.14122 106.128C6.42979 107.036 10.0979 114.83 10.3583 115.081C10.5008 115.222 12.2814 115.657 16.447 116.579L18.7302 117.084L22.9781 126.206L27.222 135.33L26.6279 137.103C25.6145 140.128 24.9653 142.153 24.7711 142.9C24.5983 143.569 24.5568 143.439 25.7281 146.016L26.7427 148.246L25.6089 148.798C24.3114 149.431 24.3175 149.423 24.0554 150.004L23.9071 150.324L24.8528 152.427C25.7798 154.5 26.1576 155.27 26.4673 155.729C26.8031 156.234 27.1962 156.398 27.6735 156.239C28.6004 155.933 33.2487 153.792 51.2005 145.408L69.7732 136.73L69.885 136.394C69.9588 136.171 69.9848 135.99 69.9667 135.858C69.9452 135.709 69.6802 135.099 68.9219 133.44C67.4572 130.222 67.2511 129.903 66.6536 129.887C66.4104 129.88 65.7462 130.112 64.9246 130.49C64.696 130.596 64.3869 130.725 64.2337 130.777L63.9546 130.878L63.3304 129.538C62.5805 127.928 61.8267 126.474 61.6706 126.334C61.4515 126.142 59.8585 125.45 56.1306 123.933L53.7443 122.96L49.5002 113.846L45.2599 104.73L45.9534 103.418C48.1994 99.1672 49.0901 97.3722 49.1015 97.0773C49.115 96.7767 48.7046 95.8336 46.9797 92.2017C45.3603 88.786 44.8505 87.7735 44.6218 87.4987C44.4969 87.3542 44.1501 87.2068 43.9511 87.2223C43.6779 87.2433 42.7232 87.6444 39.9847 88.8908C36.7871 90.346 35.9447 90.7721 35.692 91.0635C35.4292 91.3644 35.3799 91.6191 35.4778 92.1381C35.517 92.3563 35.6601 92.7048 36.1264 93.7472L36.7198 95.0732L34.5602 96.0692L32.4026 97.0594L31.6667 95.5924C31.2586 94.7882 30.8833 94.075 30.8283 94.0186C30.5667 93.735 30.2545 93.6825 29.6899 93.8296C29.2155 93.954 27.1025 94.8752 24.1386 96.2554C21.6418 97.4133 20.4445 98.0143 20.1995 98.2297C20.0201 98.3905 19.8931 98.7151 19.9033 99.0047C19.9176 99.4372 20.0497 99.8342 20.6113 101.112L21.1473 102.325L19.011 103.32L16.8748 104.315L16.6258 103.842C16.4881 103.587 16.2491 103.105 16.0958 102.776C15.7318 102.004 15.3497 101.328 15.1975 101.186C14.9499 100.964 14.6354 100.927 14.1218 101.06C13.9806 101.097 13.361 101.342 12.7448 101.605C11.4769 102.147 7.56304 103.969 6.88782 104.332Z" fill="#232326" fill-opacity="0.86"/>
</g>
<g clip-path="url(#clip1_110_5)">
<path d="M92.3841 22.0877C91.3477 21.8734 91.0548 22.0259 90.6585 22.9841C90.2963 23.8654 88.1003 32.1952 88.1391 32.5544C88.1576 32.7541 89.2426 34.2315 91.8427 37.6141L93.268 39.468L90.6636 49.1877L88.055 58.9062L86.4609 59.8831C83.7411 61.5504 81.9425 62.6854 81.314 63.133C80.7517 63.5349 80.8036 63.4084 80.0458 66.1358L79.3906 68.4967L78.1671 68.1915C76.766 67.8432 76.7755 67.8413 76.2018 68.1178L75.8825 68.2678L75.2564 70.487C74.6351 72.6712 74.43 73.504 74.3724 74.0548C74.3055 74.6574 74.5011 75.0359 74.9694 75.2202C75.8765 75.5811 80.8138 76.9267 99.9574 82.0335L119.766 87.314L120.068 87.1277C120.267 87.0045 120.403 86.8825 120.474 86.77C120.553 86.6418 120.742 86.004 121.227 84.2452C122.171 80.8385 122.218 80.4615 121.771 80.0654C121.589 79.9034 120.931 79.6547 120.059 79.4164C119.815 79.3511 119.495 79.2518 119.344 79.1932L119.066 79.0914L119.448 77.663C119.908 75.9473 120.264 74.3488 120.234 74.1414C120.19 73.8533 119.414 72.3 117.531 68.7428L116.328 66.4637L118.93 56.7525L121.536 47.0424L122.91 46.4822C127.362 44.6676 129.198 43.8641 129.396 43.6454C129.6 43.4236 129.891 42.4373 130.902 38.5458C131.855 34.8878 132.115 33.7843 132.116 33.4268C132.113 33.2358 131.942 32.9001 131.78 32.7841C131.557 32.6248 130.568 32.3189 127.668 31.5148C124.283 30.576 123.363 30.3614 122.983 30.4224C122.588 30.4842 122.387 30.6477 122.128 31.1084C122.018 31.3008 121.904 31.6597 121.591 32.7582L121.195 34.1556L118.9 33.5316L116.61 32.9045L116.988 31.3074C117.192 30.429 117.363 29.6413 117.357 29.5627C117.339 29.1773 117.133 28.9365 116.606 28.6866C116.162 28.4771 113.951 27.8258 110.793 26.9796C108.136 26.263 106.832 25.9545 106.506 25.9622C106.265 25.9702 105.959 26.1373 105.781 26.3659C105.514 26.7065 105.361 27.0956 104.97 28.4358L104.602 29.7095L102.325 29.0996L100.049 28.4897L100.162 27.9674C100.22 27.684 100.347 27.1608 100.441 26.81C100.657 25.9849 100.799 25.2211 100.773 25.0149C100.726 24.6853 100.509 24.455 100.03 24.227C99.8982 24.1645 99.2659 23.9543 98.6248 23.7599C97.3048 23.3609 93.1345 22.2435 92.3841 22.0877Z" fill="#232326" fill-opacity="0.86"/>
</g>
<path d="M183.968 103.104L183.763 104.261H179.507L179.712 103.104H183.968ZM176.746 105.602H178.108C178.133 106.08 178.213 106.498 178.35 106.854C178.492 107.206 178.714 107.481 179.017 107.682C179.319 107.882 179.729 107.989 180.247 108.004C180.77 108.019 181.224 107.914 181.609 107.689C182 107.464 182.33 107.164 182.598 106.788C182.872 106.412 183.089 106 183.25 105.55C183.416 105.096 183.533 104.647 183.602 104.203L183.763 103.126C183.807 102.799 183.826 102.462 183.821 102.115C183.821 101.769 183.785 101.434 183.711 101.112C183.638 100.785 183.521 100.492 183.36 100.233C183.199 99.9692 182.979 99.7593 182.701 99.603C182.427 99.4419 182.085 99.354 181.675 99.3394C181.148 99.3198 180.696 99.4126 180.32 99.6177C179.944 99.8228 179.634 100.111 179.39 100.482C179.151 100.848 178.963 101.271 178.826 101.749L177.457 101.756C177.603 101.039 177.869 100.409 178.255 99.8667C178.646 99.3247 179.136 98.9072 179.727 98.6143C180.318 98.3164 180.987 98.1748 181.734 98.1895C182.422 98.1992 183.001 98.3481 183.47 98.6362C183.943 98.9243 184.314 99.3052 184.583 99.7788C184.856 100.252 185.035 100.782 185.118 101.368C185.206 101.949 185.21 102.542 185.132 103.148L184.979 104.203C184.886 104.833 184.715 105.445 184.466 106.041C184.217 106.632 183.892 107.164 183.492 107.638C183.091 108.111 182.613 108.485 182.056 108.758C181.504 109.032 180.879 109.161 180.181 109.146C179.454 109.132 178.838 108.978 178.335 108.685C177.833 108.387 177.447 107.975 177.178 107.447C176.91 106.92 176.766 106.305 176.746 105.602ZM190.45 101.075L189.073 109H187.747L189.124 101.075H190.45ZM193.028 101.075L192.837 102.174H186.399L186.59 101.075H193.028ZM192.969 105.169L192.991 105.001C193.05 104.469 193.182 103.956 193.387 103.463C193.597 102.97 193.873 102.53 194.214 102.145C194.556 101.759 194.961 101.456 195.43 101.236C195.899 101.017 196.421 100.914 196.998 100.929C197.554 100.938 198.03 101.058 198.426 101.288C198.826 101.517 199.148 101.822 199.393 102.203C199.642 102.579 199.815 103.004 199.913 103.478C200.01 103.951 200.035 104.439 199.986 104.942L199.971 105.111C199.908 105.643 199.771 106.153 199.561 106.642C199.351 107.13 199.073 107.564 198.726 107.945C198.384 108.326 197.979 108.626 197.51 108.846C197.042 109.061 196.521 109.161 195.95 109.146C195.398 109.137 194.922 109.02 194.522 108.795C194.126 108.565 193.807 108.263 193.562 107.887C193.318 107.511 193.147 107.088 193.05 106.62C192.952 106.151 192.925 105.667 192.969 105.169ZM194.31 105.001L194.295 105.177C194.261 105.484 194.258 105.804 194.288 106.136C194.322 106.468 194.4 106.776 194.522 107.059C194.649 107.342 194.832 107.574 195.071 107.755C195.311 107.936 195.621 108.031 196.001 108.041C196.407 108.05 196.763 107.972 197.071 107.806C197.378 107.635 197.64 107.406 197.854 107.118C198.074 106.83 198.248 106.51 198.375 106.158C198.506 105.807 198.594 105.458 198.638 105.111L198.653 104.942C198.687 104.635 198.687 104.315 198.653 103.983C198.624 103.646 198.545 103.333 198.418 103.045C198.296 102.752 198.116 102.516 197.876 102.335C197.637 102.149 197.327 102.052 196.946 102.042C196.541 102.027 196.182 102.108 195.87 102.284C195.562 102.455 195.301 102.687 195.086 102.979C194.871 103.272 194.698 103.597 194.566 103.954C194.439 104.305 194.354 104.654 194.31 105.001ZM205.289 101.075L203.912 109H202.586L203.963 101.075H205.289ZM207.867 101.075L207.676 102.174H201.238L201.429 101.075H207.867ZM213.638 101.075L214.861 103.954L217.015 101.075H218.648L215.469 105.052L217.403 109H215.96L214.649 106.034L212.415 109H210.796L214.063 104.92L212.195 101.075H213.638ZM218.882 105.169L218.904 105.001C218.963 104.469 219.095 103.956 219.3 103.463C219.51 102.97 219.786 102.53 220.127 102.145C220.469 101.759 220.875 101.456 221.343 101.236C221.812 101.017 222.334 100.914 222.911 100.929C223.467 100.938 223.943 101.058 224.339 101.288C224.739 101.517 225.062 101.822 225.306 102.203C225.555 102.579 225.728 103.004 225.826 103.478C225.923 103.951 225.948 104.439 225.899 104.942L225.884 105.111C225.821 105.643 225.684 106.153 225.474 106.642C225.264 107.13 224.986 107.564 224.639 107.945C224.297 108.326 223.892 108.626 223.423 108.846C222.955 109.061 222.435 109.161 221.863 109.146C221.312 109.137 220.835 109.02 220.435 108.795C220.04 108.565 219.72 108.263 219.476 107.887C219.231 107.511 219.061 107.088 218.963 106.62C218.865 106.151 218.838 105.667 218.882 105.169ZM220.223 105.001L220.208 105.177C220.174 105.484 220.171 105.804 220.201 106.136C220.235 106.468 220.313 106.776 220.435 107.059C220.562 107.342 220.745 107.574 220.984 107.755C221.224 107.936 221.534 108.031 221.915 108.041C222.32 108.05 222.676 107.972 222.984 107.806C223.292 107.635 223.553 107.406 223.768 107.118C223.987 106.83 224.161 106.51 224.288 106.158C224.419 105.807 224.507 105.458 224.551 105.111L224.566 104.942C224.6 104.635 224.6 104.315 224.566 103.983C224.537 103.646 224.458 103.333 224.332 103.045C224.209 102.752 224.029 102.516 223.79 102.335C223.55 102.149 223.24 102.052 222.859 102.042C222.454 102.027 222.095 102.108 221.783 102.284C221.475 102.455 221.214 102.687 220.999 102.979C220.784 103.272 220.611 103.597 220.479 103.954C220.352 104.305 220.267 104.654 220.223 105.001ZM229.078 101.075H230.411L229.781 104.034C229.683 104.542 229.556 105.04 229.4 105.528C229.244 106.012 229.046 106.471 228.807 106.905C228.567 107.34 228.274 107.735 227.928 108.092C227.586 108.448 227.173 108.751 226.69 109H225.943L226.148 107.901H226.412C226.7 107.623 226.954 107.34 227.173 107.052C227.398 106.764 227.591 106.466 227.752 106.158C227.918 105.846 228.057 105.516 228.169 105.169C228.287 104.818 228.382 104.442 228.455 104.042L229.078 101.075ZM229.407 101.075H234.043L232.667 109H231.341L232.498 102.328H229.188L229.407 101.075ZM225.848 107.887H233.846L233.245 111.336H231.919L232.33 109H226.976L226.565 111.336H225.24L225.848 107.887ZM245.557 97.6255L246.619 97.6182C246.58 98.0527 246.482 98.4092 246.326 98.6875C246.175 98.9609 245.972 99.1807 245.718 99.3467C245.469 99.5078 245.181 99.6348 244.854 99.7275C244.532 99.8203 244.18 99.9033 243.799 99.9766C243.189 100.094 242.676 100.292 242.261 100.57C241.851 100.848 241.514 101.19 241.25 101.595C240.992 101.996 240.792 102.447 240.65 102.95C240.508 103.448 240.406 103.983 240.342 104.554L240.247 105.228H239.156L239.251 104.554C239.344 103.91 239.488 103.275 239.683 102.65C239.878 102.02 240.142 101.439 240.474 100.907C240.811 100.375 241.231 99.9253 241.734 99.5591C242.242 99.188 242.85 98.939 243.558 98.812C243.821 98.7632 244.095 98.707 244.378 98.6436C244.661 98.5801 244.91 98.4727 245.125 98.3213C245.345 98.1699 245.489 97.938 245.557 97.6255ZM243.309 101.529C243.812 101.539 244.244 101.644 244.605 101.844C244.966 102.044 245.259 102.313 245.484 102.65C245.713 102.982 245.875 103.36 245.967 103.785C246.06 104.205 246.087 104.645 246.048 105.104L246.026 105.265C245.972 105.792 245.84 106.292 245.63 106.766C245.425 107.235 245.154 107.652 244.817 108.019C244.48 108.38 244.083 108.663 243.624 108.868C243.165 109.073 242.657 109.168 242.1 109.154C241.558 109.144 241.092 109.032 240.701 108.817C240.311 108.602 239.993 108.314 239.749 107.953C239.505 107.586 239.332 107.176 239.229 106.722C239.131 106.268 239.107 105.794 239.156 105.301L239.17 105.133C239.19 104.991 239.229 104.859 239.288 104.737C239.351 104.61 239.419 104.488 239.493 104.371C239.571 104.249 239.642 104.127 239.705 104.005C239.949 103.551 240.247 103.133 240.599 102.752C240.955 102.372 241.358 102.071 241.807 101.852C242.261 101.627 242.762 101.52 243.309 101.529ZM243.001 102.628C242.518 102.618 242.098 102.73 241.741 102.965C241.39 103.194 241.109 103.502 240.899 103.888C240.689 104.273 240.555 104.688 240.496 105.133L240.481 105.294C240.447 105.602 240.447 105.914 240.481 106.231C240.516 106.549 240.591 106.844 240.708 107.118C240.831 107.386 241.009 107.606 241.243 107.777C241.478 107.948 241.783 108.038 242.159 108.048C242.549 108.058 242.894 107.984 243.191 107.828C243.489 107.667 243.741 107.452 243.946 107.184C244.156 106.91 244.322 106.607 244.444 106.275C244.571 105.943 244.656 105.606 244.7 105.265L244.715 105.104C244.744 104.801 244.737 104.505 244.693 104.217C244.649 103.924 244.559 103.661 244.422 103.426C244.29 103.192 244.107 103.004 243.873 102.862C243.638 102.716 243.348 102.638 243.001 102.628ZM248.838 103.8L251.058 103.807C251.556 103.822 252 103.929 252.391 104.129C252.786 104.325 253.091 104.605 253.306 104.972C253.521 105.338 253.609 105.785 253.57 106.312C253.541 106.747 253.433 107.132 253.248 107.469C253.067 107.806 252.828 108.089 252.53 108.319C252.232 108.548 251.895 108.722 251.519 108.839C251.143 108.951 250.75 109.005 250.34 109H246.978L248.355 101.075H249.673L248.494 107.887L250.369 107.894C250.687 107.889 250.977 107.828 251.241 107.711C251.509 107.594 251.731 107.423 251.907 107.198C252.088 106.969 252.2 106.69 252.244 106.363C252.278 106.08 252.251 105.833 252.164 105.624C252.081 105.414 251.941 105.248 251.746 105.125C251.556 105.003 251.321 104.935 251.043 104.92L248.641 104.913L248.838 103.8ZM257.239 101.075L255.862 109H254.537L255.914 101.075H257.239ZM264.747 101.075L264.549 102.196H260.821L261.019 101.075H264.747ZM265.904 101.075L264.527 109H263.201L264.578 101.075H265.904ZM260.696 101.075H262.037L261.187 104.898C261.114 105.27 261.028 105.65 260.931 106.041C260.838 106.427 260.721 106.798 260.579 107.154C260.438 107.511 260.254 107.831 260.03 108.114C259.81 108.392 259.537 108.612 259.209 108.773C258.882 108.929 258.487 109.005 258.023 109H257.576L257.708 107.813L257.979 107.799C258.301 107.779 258.57 107.691 258.785 107.535C259 107.379 259.175 107.181 259.312 106.942C259.454 106.698 259.566 106.432 259.649 106.144C259.732 105.855 259.798 105.567 259.847 105.279C259.9 104.986 259.949 104.718 259.993 104.474L260.696 101.075ZM277.081 97.6255L278.143 97.6182C278.104 98.0527 278.006 98.4092 277.85 98.6875C277.698 98.9609 277.496 99.1807 277.242 99.3467C276.993 99.5078 276.705 99.6348 276.377 99.7275C276.055 99.8203 275.704 99.9033 275.323 99.9766C274.712 100.094 274.2 100.292 273.785 100.57C273.375 100.848 273.038 101.19 272.774 101.595C272.515 101.996 272.315 102.447 272.173 102.95C272.032 103.448 271.929 103.983 271.866 104.554L271.771 105.228H270.679L270.774 104.554C270.867 103.91 271.011 103.275 271.207 102.65C271.402 102.02 271.666 101.439 271.998 100.907C272.334 100.375 272.754 99.9253 273.257 99.5591C273.765 99.188 274.373 98.939 275.081 98.812C275.345 98.7632 275.618 98.707 275.901 98.6436C276.185 98.5801 276.434 98.4727 276.648 98.3213C276.868 98.1699 277.012 97.938 277.081 97.6255ZM274.832 101.529C275.335 101.539 275.767 101.644 276.128 101.844C276.49 102.044 276.783 102.313 277.007 102.65C277.237 102.982 277.398 103.36 277.491 103.785C277.583 104.205 277.61 104.645 277.571 105.104L277.549 105.265C277.496 105.792 277.364 106.292 277.154 106.766C276.949 107.235 276.678 107.652 276.341 108.019C276.004 108.38 275.606 108.663 275.147 108.868C274.688 109.073 274.18 109.168 273.624 109.154C273.082 109.144 272.615 109.032 272.225 108.817C271.834 108.602 271.517 108.314 271.272 107.953C271.028 107.586 270.855 107.176 270.752 106.722C270.655 106.268 270.63 105.794 270.679 105.301L270.694 105.133C270.713 104.991 270.752 104.859 270.811 104.737C270.875 104.61 270.943 104.488 271.016 104.371C271.094 104.249 271.165 104.127 271.229 104.005C271.473 103.551 271.771 103.133 272.122 102.752C272.479 102.372 272.881 102.071 273.331 101.852C273.785 101.627 274.285 101.52 274.832 101.529ZM274.524 102.628C274.041 102.618 273.621 102.73 273.265 102.965C272.913 103.194 272.632 103.502 272.422 103.888C272.212 104.273 272.078 104.688 272.02 105.133L272.005 105.294C271.971 105.602 271.971 105.914 272.005 106.231C272.039 106.549 272.115 106.844 272.232 107.118C272.354 107.386 272.532 107.606 272.767 107.777C273.001 107.948 273.306 108.038 273.682 108.048C274.073 108.058 274.417 107.984 274.715 107.828C275.013 107.667 275.264 107.452 275.469 107.184C275.679 106.91 275.845 106.607 275.967 106.275C276.094 105.943 276.18 105.606 276.224 105.265L276.238 105.104C276.268 104.801 276.26 104.505 276.216 104.217C276.172 103.924 276.082 103.661 275.945 103.426C275.813 103.192 275.63 103.004 275.396 102.862C275.162 102.716 274.871 102.638 274.524 102.628ZM284.903 101.075L284.705 102.196H280.977L281.175 101.075H284.903ZM286.06 101.075L284.683 109H283.357L284.734 101.075H286.06ZM280.853 101.075H282.193L281.343 104.898C281.27 105.27 281.185 105.65 281.087 106.041C280.994 106.427 280.877 106.798 280.735 107.154C280.594 107.511 280.411 107.831 280.186 108.114C279.966 108.392 279.693 108.612 279.366 108.773C279.039 108.929 278.643 109.005 278.179 109H277.732L277.864 107.813L278.135 107.799C278.458 107.779 278.726 107.691 278.941 107.535C279.156 107.379 279.332 107.181 279.468 106.942C279.61 106.698 279.722 106.432 279.805 106.144C279.888 105.855 279.954 105.567 280.003 105.279C280.057 104.986 280.105 104.718 280.149 104.474L280.853 101.075ZM290.14 109.146C289.598 109.137 289.126 109.029 288.726 108.824C288.331 108.614 288.006 108.333 287.752 107.982C287.503 107.625 287.325 107.22 287.217 106.766C287.11 106.312 287.078 105.836 287.122 105.338L287.151 105.023C287.2 104.515 287.325 104.017 287.525 103.529C287.725 103.036 287.991 102.591 288.323 102.196C288.66 101.8 289.056 101.488 289.51 101.258C289.969 101.024 290.477 100.914 291.033 100.929C291.585 100.938 292.044 101.056 292.41 101.28C292.776 101.505 293.062 101.803 293.267 102.174C293.477 102.54 293.614 102.953 293.677 103.412C293.741 103.866 293.746 104.332 293.692 104.811L293.611 105.418H287.862L288.038 104.312L292.425 104.32L292.447 104.203C292.496 103.851 292.476 103.512 292.388 103.185C292.3 102.857 292.139 102.589 291.905 102.379C291.675 102.164 291.365 102.052 290.975 102.042C290.569 102.027 290.218 102.11 289.92 102.291C289.622 102.467 289.373 102.706 289.173 103.009C288.973 103.307 288.814 103.634 288.697 103.99C288.584 104.342 288.506 104.686 288.462 105.023L288.433 105.331C288.404 105.643 288.414 105.958 288.462 106.275C288.511 106.593 288.604 106.883 288.741 107.147C288.882 107.406 289.078 107.618 289.327 107.784C289.576 107.945 289.883 108.031 290.25 108.041C290.694 108.05 291.092 107.955 291.443 107.755C291.8 107.55 292.125 107.291 292.417 106.979L293.172 107.623C292.942 107.96 292.669 108.243 292.352 108.473C292.034 108.702 291.688 108.873 291.312 108.985C290.936 109.098 290.545 109.151 290.14 109.146ZM297.808 108.041C298.13 108.045 298.431 107.984 298.709 107.857C298.987 107.73 299.224 107.55 299.419 107.315C299.615 107.081 299.754 106.81 299.837 106.502L301.097 106.495C301.019 107.027 300.811 107.494 300.474 107.894C300.142 108.294 299.734 108.607 299.251 108.832C298.772 109.051 298.272 109.156 297.75 109.146C297.193 109.137 296.719 109.022 296.329 108.802C295.943 108.578 295.633 108.28 295.398 107.909C295.164 107.538 295.003 107.12 294.915 106.656C294.827 106.188 294.808 105.707 294.856 105.213L294.886 104.898C294.944 104.366 295.074 103.861 295.274 103.382C295.474 102.899 295.74 102.472 296.072 102.101C296.409 101.725 296.807 101.432 297.266 101.222C297.725 101.012 298.24 100.914 298.812 100.929C299.368 100.938 299.852 101.07 300.262 101.324C300.672 101.573 300.989 101.913 301.214 102.342C301.438 102.772 301.551 103.26 301.551 103.807L300.306 103.8C300.301 103.487 300.24 103.199 300.123 102.936C300.005 102.672 299.832 102.459 299.603 102.298C299.373 102.137 299.09 102.049 298.753 102.035C298.348 102.025 297.994 102.101 297.691 102.262C297.393 102.423 297.139 102.645 296.929 102.928C296.724 103.207 296.561 103.517 296.438 103.858C296.321 104.2 296.241 104.547 296.197 104.898L296.16 105.206C296.131 105.519 296.126 105.838 296.146 106.166C296.17 106.493 296.238 106.798 296.351 107.081C296.463 107.359 296.636 107.586 296.871 107.762C297.105 107.938 297.417 108.031 297.808 108.041ZM306.641 101.075L305.264 109H303.938L305.315 101.075H306.641ZM309.219 101.075L309.029 102.174H302.591L302.781 101.075H309.219ZM311.299 105.221H312.815L309.93 109H308.414L311.299 105.221ZM313.079 101.068L316.382 101.075L315.005 109H313.68L314.866 102.174L313.05 102.167C312.757 102.171 312.474 102.225 312.2 102.328C311.927 102.425 311.692 102.577 311.497 102.782C311.307 102.987 311.189 103.248 311.146 103.565C311.111 103.819 311.138 104.037 311.226 104.217C311.319 104.398 311.456 104.537 311.636 104.635C311.822 104.732 312.037 104.786 312.281 104.796L314.778 104.803L314.581 105.917L312.259 105.909C311.907 105.899 311.578 105.841 311.27 105.733C310.967 105.626 310.704 105.475 310.479 105.279C310.254 105.079 310.083 104.835 309.966 104.547C309.849 104.254 309.803 103.922 309.827 103.551C309.852 103.121 309.961 102.75 310.157 102.438C310.352 102.125 310.604 101.869 310.911 101.668C311.219 101.463 311.561 101.312 311.937 101.214C312.312 101.117 312.693 101.068 313.079 101.068ZM328.006 107.887L327.273 111.351H326.087L326.497 109H325.494L325.691 107.887H328.006ZM318.521 101.075H319.847L318.66 107.887H321.465L322.652 101.075H323.978L322.798 107.887H325.596L326.775 101.075H328.101L326.724 109H317.144L318.521 101.075ZM330.965 106.766L335.447 101.075H336.824L335.447 109H334.114L335.11 103.309L330.628 109H329.266L330.643 101.075H331.954L330.965 106.766ZM342.259 107.191L345.936 101.075H347.276L342.479 109H341.556L339.52 101.075H340.728L342.259 107.191ZM340.376 101.075L339 109H337.681L339.058 101.075H340.376ZM344.917 109L346.294 101.075H347.627L346.25 109H344.917Z" fill="#8A5D31"/>
<line x1="8" y1="291" x2="390" y2="291" stroke="#232326" stroke-dasharray="2 2"/>
<line x1="136" y1="37" x2="136" y2="419" stroke="#232326" stroke-dasharray="2 2"/>
<line x1="8" y1="164" x2="390" y2="164" stroke="#232326" stroke-dasharray="2 2"/>
<line x1="263" y1="37" x2="263" y2="419" stroke="#232326" stroke-dasharray="2 2"/>
<rect x="172.276" y="103.578" width="15.4292" height="15.4292" transform="rotate(135 172.276 103.578)" fill="#8A5D31" stroke="#DEDAD7" stroke-width="3"/>
<rect x="373.699" y="103.578" width="15.4292" height="15.4292" transform="rotate(135 373.699 103.578)" fill="#8A5D31" stroke="#DEDAD7" stroke-width="3"/>
<rect y="83.4044" width="52" height="85.049" transform="rotate(-34.435 0 83.4044)" fill="#DEDAD7"/>
<rect x="43" y="7.4718" width="52" height="85.049" transform="rotate(-8.2613 43 7.4718)" fill="#DEDAD7"/>
<path d="M93.1799 124.81H91.9408C92.7551 123.583 95.0007 119.464 91.679 115.395C88.4057 111.384 82.4371 100.851 82.6912 91.7101H83.9854C85.6103 91.7101 86.8052 90.3927 86.8052 88.7679V88.4001C86.8052 86.7753 85.4878 85.4579 83.8629 85.4579C85.4878 85.4579 86.8052 84.1405 86.8052 82.5157V82.1479C86.8052 80.523 85.6103 79.2057 83.9854 79.2057H82.2841C81.525 71.2098 82.6805 63.3714 84.4757 59.1008C85.1597 57.4733 85.9902 56.2358 86.7912 55.3001H87.2954C88.9203 55.3001 90.1152 53.9828 90.1152 52.3579V51.9901C90.1152 50.3653 88.9203 49.0479 87.2954 49.0479H83.6912C83.0281 45.0406 80.3819 41.7049 76.7935 40.0804C77.4493 39.1216 77.834 37.9631 77.834 36.7138C77.834 33.4163 75.1621 30.7437 71.8642 30.7437C68.5664 30.7437 65.8937 33.4163 65.8937 36.7134C65.8937 37.9583 66.2751 39.1132 66.9268 40.0701C63.327 41.6905 60.6709 45.0314 60.0067 49.0476H56.0347C54.4099 49.0476 52.97 50.3649 52.97 51.9898V52.3576C52.97 53.9824 54.4099 55.2998 56.0347 55.2998H56.9067C57.7077 56.2354 58.5382 57.473 59.2222 59.1004C61.0174 63.371 62.1729 71.2094 61.4138 79.2053H59.7125C58.0876 79.2053 56.6478 80.5227 56.6478 82.1475V82.5153C56.6478 84.1401 57.9652 85.4575 59.59 85.4575C57.9652 85.4575 56.6478 86.7749 56.6478 88.3997V88.7675C56.6478 90.3923 58.0876 91.7097 59.7125 91.7097H61.0372C61.2917 100.85 55.3234 111.384 52.0495 115.395C48.7281 119.463 50.9734 123.582 51.7876 124.81H50.5181C48.8932 124.81 47.4534 126.127 47.4534 127.752V131.062C47.4534 132.562 48.5567 133.797 50.0278 133.979V140.256H93.4255V133.979C94.8966 133.797 96 132.562 96 131.062V127.752C95.9996 126.127 94.8047 124.81 93.1799 124.81Z" fill="#8A5D31"/>
<line x1="325.172" y1="357.828" x2="69.1716" y2="101.828" stroke="url(#paint0_linear_110_5)" stroke-width="8" stroke-dasharray="16 16"/>
<defs>
<linearGradient id="paint0_linear_110_5" x1="72.3536" y1="98.6465" x2="328.354" y2="354.646" gradientUnits="userSpaceOnUse">
<stop offset="0.141" stop-color="#8A5D31"/>
<stop offset="1" stop-color="#8A5D31" stop-opacity="0"/>
</linearGradient>
<clipPath id="clip0_110_5">
<rect width="48" height="56" fill="white" transform="translate(3.20776 105.998) rotate(-24.9703)"/>
</clipPath>
<clipPath id="clip1_110_5">
<rect width="48" height="56" fill="white" transform="translate(88.4939 21) rotate(15)"/>
</clipPath>
</defs>
</svg>
