<svg width="41" height="42" viewBox="0 0 41 42" fill="none" xmlns="http://www.w3.org/2000/svg">
    <path fill-rule="evenodd" clip-rule="evenodd" d="M41.0001 21C41.0001 32.0886 32.011 41.0777 20.9224 41.0777C9.83381 41.0777 0.844727 32.0886 0.844727 21C0.844727 9.91144 9.83381 0.922363 20.9224 0.922363C32.011 0.922363 41.0001 9.91144 41.0001 21ZM21.8968 15.5335C19.9408 16.3526 16.0457 18.0411 10.1946 20.5822C9.25837 20.9666 8.75685 21.3344 8.7067 21.7022C8.63266 22.3241 9.41107 22.5657 10.4611 22.8915C10.5966 22.9336 10.7367 22.977 10.88 23.0229C11.9165 23.3572 13.2873 23.7418 14.0061 23.7585C14.6581 23.7752 15.377 23.5077 16.1794 22.956C21.646 19.2615 24.4545 17.3891 24.6384 17.3557C24.7722 17.3222 24.9394 17.2888 25.0564 17.3891C25.1734 17.4894 25.1734 17.69 25.1567 17.7402C25.0769 18.0725 21.8153 21.1005 20.3313 22.4781C19.9491 22.8329 19.6848 23.0783 19.6232 23.1399C19.4664 23.3013 19.3068 23.4542 19.1532 23.6011C18.1937 24.5196 17.4736 25.2088 19.1885 26.3329C19.9683 26.8477 20.5971 27.2768 21.2165 27.6993C21.9648 28.2099 22.6992 28.7109 23.6688 29.3421C23.8973 29.4921 24.116 29.6477 24.3294 29.7995C25.1621 30.3919 25.9136 30.9265 26.8451 30.8467C27.3801 30.7965 27.9318 30.295 28.216 28.7904C28.8847 25.2463 30.1886 17.5396 30.4896 14.3633C30.523 14.0958 30.4896 13.7447 30.4561 13.5775C30.4227 13.4104 30.3725 13.193 30.1719 13.0258C29.9212 12.8253 29.5534 12.7918 29.3862 12.7918C28.6339 12.8085 27.4637 13.2097 21.8968 15.5335Z" fill="#DEDAD7"/>
</svg>
