<svg width="36" height="42" viewBox="0 0 36 42" fill="none" xmlns="http://www.w3.org/2000/svg">
    <g clip-path="url(#clip0_1_47)">
        <path d="M3.0293 0.0328064C2.23691 0.0787468 2.0543 0.24609 1.95322 1.01718C1.86191 1.72593 1.888 8.18671 1.98582 8.43937C2.038 8.58046 3.11082 9.44015 5.65104 11.3859L7.04343 12.4523V19.9992L7.04017 27.5461L6.07495 28.5633C4.42822 30.2991 3.34561 31.4705 2.97713 31.9167C2.64778 32.317 2.66082 32.2153 2.64126 34.3383L2.62495 36.1758L1.6793 36.1922C0.596694 36.2119 0.603215 36.2086 0.241259 36.5203L0.0390849 36.6909L0.0162588 38.4202C-0.00982817 40.1231 0.00321531 40.7662 0.0684327 41.1764C0.136911 41.6259 0.352128 41.8622 0.727128 41.9048C1.4543 41.9902 5.29235 42.0066 20.1521 41.9902L35.5271 41.9705L35.7097 41.7769C35.8304 41.6489 35.9054 41.5341 35.9347 41.4389C35.9674 41.3306 35.9804 40.8319 35.9902 39.4636C36.013 36.8123 35.9739 36.5302 35.5728 36.33C35.4097 36.248 34.8847 36.1955 34.2065 36.1922C34.0173 36.1922 33.7663 36.1823 33.6456 36.1692L33.4239 36.1495V35.0405C33.4239 33.7083 33.3717 32.4811 33.3097 32.3367C33.2217 32.1366 32.3576 31.162 30.3032 28.9505L28.9891 27.533V19.9927L28.9923 12.4523L29.8793 11.7797C32.7521 9.60093 33.926 8.66249 34.0271 8.46562C34.1315 8.26546 34.151 7.49437 34.1282 4.4789C34.1087 1.6439 34.0826 0.794056 34.0141 0.53484C33.975 0.397026 33.7858 0.187027 33.6456 0.134525C33.4532 0.0623398 32.6771 0.0328064 30.4206 0.0131187C27.7858 -0.00984955 27.0782 0.0131187 26.8141 0.131245C26.5402 0.252651 26.426 0.410152 26.3282 0.794056C26.2858 0.954838 26.2728 1.23703 26.2597 2.09343L26.2434 3.18281L24.4597 3.17625L22.6793 3.1664L22.6434 1.93593C22.6206 1.25999 22.5913 0.656246 22.5717 0.600464C22.4837 0.324841 22.288 0.190308 21.8576 0.111557C21.4956 0.0459328 19.7673 0.00327682 17.3152 0.00327682C15.251 -3.8147e-06 14.2467 0.0295258 14.0119 0.0984344C13.8391 0.150932 13.65 0.331402 13.5652 0.531559C13.438 0.830151 13.4021 1.14187 13.3793 2.18859L13.3597 3.18281H11.5923H9.82495L9.80539 2.78249C9.79235 2.56593 9.78256 2.16234 9.78256 1.89C9.7793 1.25015 9.73365 0.669369 9.67496 0.524994C9.57713 0.295307 9.37496 0.17062 8.98365 0.0984344C8.87604 0.0787468 8.37713 0.0492134 7.87496 0.0328064C6.84126 -3.8147e-06 3.60322 -3.8147e-06 3.0293 0.0328064Z"
              fill="#D9D7DE"/>
    </g>
    <defs>
        <clipPath id="clip0_1_47">
            <rect width="36" height="42" fill="white"/>
        </clipPath>
    </defs>
</svg>
