<svg width="41" height="42" viewBox="0 0 41 42" fill="none" xmlns="http://www.w3.org/2000/svg">
    <path fill-rule="evenodd" clip-rule="evenodd" d="M2.82269 3.74506C0 6.56775 0 11.1108 0 20.1969V21.8031C0 30.8893 0 35.4323 2.82269 38.255C5.64539 41.0777 10.1884 41.0777 19.2746 41.0777H20.8808C29.9669 41.0777 34.5099 41.0777 37.3327 38.255C40.1553 35.4323 40.1553 30.8893 40.1553 21.8031V20.1969C40.1553 11.1108 40.1553 6.56775 37.3327 3.74506C34.5099 0.922363 29.9669 0.922363 20.8808 0.922363H19.2746C10.1884 0.922363 5.64539 0.922363 2.82269 3.74506ZM6.69248 12.6344C6.90999 23.0748 12.1301 29.349 21.2822 29.349H21.801V23.3759C25.164 23.7105 27.7069 26.1701 28.7276 29.349H33.4794C32.1744 24.5973 28.7443 21.9705 26.6027 20.9666C28.7443 19.7285 31.7559 16.7168 32.4754 12.6344H28.1586C27.2216 15.9472 24.4446 18.9588 21.801 19.2433V12.6344H17.4841V24.2125C14.8071 23.5432 11.4275 20.2973 11.2769 12.6344H6.69248Z" fill="#232326"/>
</svg>
